<svg width="54" height="47" viewBox="0 0 54 47" fill="none" xmlns="http://www.w3.org/2000/svg">
<path d="M34.875 9.375C37.35 9.375 39.375 7.35 39.375 4.875C39.375 2.4 37.35 0.375 34.875 0.375C32.4 0.375 30.375 2.4 30.375 4.875C30.375 7.35 32.4 9.375 34.875 9.375ZM11.25 46.5C17.55 46.5 22.5 41.55 22.5 35.25C22.5 28.95 17.55 24 11.25 24C4.95 24 0 28.95 0 35.25C0 41.55 4.95 46.5 11.25 46.5ZM11.25 27.375C15.525 27.375 19.125 30.975 19.125 35.25C19.125 39.525 15.525 43.125 11.25 43.125C6.975 43.125 3.375 39.525 3.375 35.25C3.375 30.975 6.975 27.375 11.25 27.375ZM17.55 22.2L24.75 28.5V39.75H29.25V25.8L24.3 20.625L29.7 15.225L31.5 17.025C34.425 19.95 38.25 21.75 42.975 21.75V17.25C39.6 17.25 36.9 15.9 34.875 13.875L30.6 9.6C29.475 8.7 28.35 8.25 27 8.25C25.65 8.25 24.525 8.7 23.85 9.6L17.55 15.9C16.65 16.8 16.2 17.925 16.2 19.05C16.2 20.4 16.65 21.525 17.55 22.2ZM42.75 24C36.45 24 31.5 28.95 31.5 35.25C31.5 41.55 36.45 46.5 42.75 46.5C49.05 46.5 54 41.55 54 35.25C54 28.95 49.05 24 42.75 24ZM42.75 43.125C38.475 43.125 34.875 39.525 34.875 35.25C34.875 30.975 38.475 27.375 42.75 27.375C47.025 27.375 50.625 30.975 50.625 35.25C50.625 39.525 47.025 43.125 42.75 43.125Z" fill="#D5741B"/>
</svg>
