<svg width="64" height="64" viewBox="0 0 64 64" fill="none" xmlns="http://www.w3.org/2000/svg">
<path d="M27.9135 17.1875C28.2814 17.0168 28.6924 16.9616 29.0924 17.0292C29.4923 17.0968 29.8624 17.284 30.1537 17.5661L34.2641 21.9625L21.5072 33.2179C22.7015 33.4554 23.5457 33.848 24.2737 34.1876C25.2462 34.6415 26.0144 35.0001 27.7134 35.0001C29.4124 35.0001 30.1806 34.6416 31.1532 34.1876L31.1725 34.1786C33.0513 33.3028 34.7947 32.162 36.3496 30.7911L39.7306 27.8079L46.3431 34.8795C47.1155 34.7374 47.6632 34.4833 48.2961 34.188C48.9744 33.8524 49.6817 33.579 50.4095 33.3714L33.0485 14.8055L33.0019 14.7574C32.1295 13.8889 31.0118 13.3088 29.7995 13.0952C28.5872 12.8816 27.3386 13.0449 26.222 13.563L18.1542 17.328L19.8457 20.953L27.9135 17.1875Z" fill="#D5741B"/>
<path d="M46.5 21C48.9853 21 51 18.9853 51 16.5C51 14.0147 48.9853 12 46.5 12C44.0147 12 42 14.0147 42 16.5C42 18.9853 44.0147 21 46.5 21Z" fill="#D5741B"/>
<path d="M53.4281 47C50.8415 47 49.4303 47.6585 48.2965 48.1875C47.3237 48.6414 46.5555 49 44.8561 49C43.1567 49 42.3888 48.6415 41.4161 48.1875C40.2822 47.6585 38.8713 47 36.2846 47C33.698 47 32.287 47.6586 31.1532 48.1875C30.1806 48.6414 29.4125 49 27.7134 49C26.0142 49 25.2463 48.6415 24.2738 48.1875C23.14 47.6585 21.729 47 19.1425 47C16.556 47 15.1449 47.6586 14.0111 48.1875C13.0385 48.6414 12.2704 49 10.5712 49C8.87212 49 8.104 48.6415 7.13137 48.1875C5.99762 47.6586 4.5865 47 2 47V51C3.69913 51 4.46725 51.3585 5.43988 51.8125C6.57363 52.3415 7.98475 53 10.5712 53C13.1578 53 14.5689 52.3414 15.7026 51.8125C16.6753 51.3586 17.4434 51 19.1425 51C20.8416 51 21.6096 51.3585 22.5821 51.8125C23.7159 52.3415 25.1269 53 27.7134 53C30.2999 53 31.711 52.3414 32.8447 51.8125C33.8174 51.3586 34.5856 51 36.2846 51C37.9836 51 38.752 51.3585 39.7246 51.8125C40.8585 52.3415 42.2695 53 44.8561 53C47.4427 53 48.854 52.3415 49.9879 51.8125C50.9605 51.3586 51.7289 51 53.4281 51C55.1274 51 55.8958 51.3585 56.8683 51.8125C58.0023 52.3416 59.4134 53 62 53V49C60.3008 49 59.5324 48.6415 58.5599 48.1875C57.4259 47.6585 56.0147 47 53.4281 47Z" fill="#D5741B"/>
<path d="M61.6625 38.9949C60.1949 38.95 59.4655 38.6105 58.56 38.1879C57.4767 37.6824 56.138 37.0604 53.7659 37.0056C53.6547 37.0031 53.544 37.0003 53.4284 37.0003C53.3127 37.0003 53.2019 37.0031 53.0909 37.0056C50.7187 37.0604 49.3799 37.6824 48.2969 38.1879C47.3911 38.6105 46.6619 38.9504 45.1941 38.9949C45.0855 38.9981 44.9736 39.0003 44.8566 39.0003C44.7396 39.0003 44.6276 38.9981 44.5191 38.9949C43.0515 38.95 42.3222 38.6105 41.4167 38.1879C40.3336 37.6825 38.9949 37.0605 36.6229 37.0056C36.5117 37.0031 36.4011 37.0003 36.2854 37.0003C36.1696 37.0003 36.059 37.0031 35.9479 37.0056C33.5759 37.0604 32.237 37.6825 31.154 38.1879C30.2485 38.6105 29.5192 38.9504 28.0517 38.9949C27.9431 38.9981 27.8312 39.0003 27.7142 39.0003C27.5972 39.0003 27.4854 38.9981 27.3767 38.9949C25.9094 38.95 25.1801 38.6105 24.2747 38.1879C23.1917 37.6825 21.853 37.0604 19.4811 37.0056C19.3999 37.0034 19.3186 37.002 19.2374 37.0015C19.2055 37.0015 19.1749 37 19.1432 37C19.0275 37 18.9167 37.0029 18.8057 37.0054C16.4339 37.0601 15.095 37.6823 14.012 38.1876C13.1064 38.6102 12.3772 38.9501 10.9097 38.9946C10.8011 38.9979 10.6892 39 10.5722 39C10.4552 39 10.3434 38.9979 10.2347 38.9946C8.76625 38.9502 8.0375 38.6105 7.13137 38.1878C6.04837 37.6824 4.70962 37.0603 2.33762 37.0055C2.2265 37.003 2.11575 37.0001 2.00012 37.0001V41.0001C3.69925 41.0001 4.46737 41.3586 5.44 41.8126C6.57375 42.3416 7.98487 43.0001 10.5714 43.0001C13.1579 43.0001 14.569 42.3415 15.7027 41.8126C16.6754 41.3587 17.4435 41.0001 19.1426 41.0001C20.8417 41.0001 21.6097 41.3586 22.5822 41.8126C23.716 42.3416 25.127 43.0001 27.7135 43.0001C30.3 43.0001 31.7111 42.3415 32.8449 41.8126C33.8175 41.3587 34.5857 41.0001 36.2847 41.0001C37.9837 41.0001 38.7521 41.3586 39.7247 41.8126C40.8586 42.3416 42.2696 43.0001 44.8562 43.0001C47.4429 43.0001 48.8541 42.3416 49.988 41.8126C50.9606 41.3587 51.729 41.0001 53.4282 41.0001C55.1275 41.0001 55.8959 41.3586 56.8684 41.8126C58.0024 42.3417 59.4135 43.0001 62.0001 43.0001V39.0003C61.8829 39.0003 61.771 38.9981 61.6625 38.9949Z" fill="#D5741B"/>
</svg>
