<svg width="54" height="44" viewBox="0 0 54 44" fill="none" xmlns="http://www.w3.org/2000/svg">
<path d="M52.3125 36.6667H1.6875C1.23047 36.6667 0.834961 36.4852 0.500977 36.1224C0.166992 35.7595 0 35.3299 0 34.8333C0 27.6528 2.04785 21.5321 6.14355 16.4714C10.2393 11.4106 15.5039 8.36458 21.9375 7.33333C22.3945 7.33333 22.79 7.15191 23.124 6.78906C23.458 6.42622 23.625 5.99653 23.625 5.5C23.625 5.00347 23.458 4.57378 23.124 4.21094C22.79 3.84809 22.3945 3.66667 21.9375 3.66667C21.4805 3.66667 21.085 3.48524 20.751 3.1224C20.417 2.75955 20.25 2.32986 20.25 1.83333C20.25 1.33681 20.417 0.907118 20.751 0.544271C21.085 0.181424 21.4805 0 21.9375 0H32.0625C32.5195 0 32.915 0.181424 33.249 0.544271C33.583 0.907118 33.75 1.33681 33.75 1.83333C33.75 2.32986 33.583 2.75955 33.249 3.1224C32.915 3.48524 32.5195 3.66667 32.0625 3.66667C31.6055 3.66667 31.21 3.84809 30.876 4.21094C30.542 4.57378 30.375 5.00347 30.375 5.5C30.375 5.99653 30.542 6.42622 30.876 6.78906C31.21 7.15191 31.6055 7.33333 32.0625 7.33333C38.4961 8.36458 43.7607 11.4106 47.8564 16.4714C51.9521 21.5321 54 27.6528 54 34.8333C54 35.3299 53.833 35.7595 53.499 36.1224C53.165 36.4852 52.7695 36.6667 52.3125 36.6667ZM1.6875 40.3333H52.3125C52.7695 40.3333 53.165 40.5148 53.499 40.8776C53.833 41.2405 54 41.6701 54 42.1667C54 42.6632 53.833 43.0929 53.499 43.4557C53.165 43.8186 52.7695 44 52.3125 44H1.6875C1.23047 44 0.834961 43.8186 0.500977 43.4557C0.166992 43.0929 0 42.6632 0 42.1667C0 41.6701 0.166992 41.2405 0.500977 40.8776C0.834961 40.5148 1.23047 40.3333 1.6875 40.3333Z" fill="#D5741B"/>
</svg>
