<svg width="64" height="64" viewBox="0 0 64 64" fill="none" xmlns="http://www.w3.org/2000/svg">
<path d="M51.8844 27.1322C46.8613 22.1091 39.9218 19.0024 32.2569 19.0024C24.5796 19.0024 17.6302 22.1189 12.6053 27.1553L9.216 23.8104C15.104 17.8993 23.2533 14.2397 32.256 14.2397C41.2364 14.2397 49.3671 17.8797 55.2515 23.7651L51.8844 27.1322Z" fill="#D5741B"/>
<path d="M19.4809 34.0315C21.1764 32.3003 23.2009 30.9255 25.4354 29.9879C27.6699 29.0503 30.0693 28.5689 32.4925 28.5719C37.2722 28.5655 41.8622 30.442 45.2685 33.7951L48.632 30.4244C44.3338 26.1793 38.5336 23.8026 32.4925 23.8111C29.444 23.8072 26.4254 24.4113 23.6133 25.5881C20.8011 26.7649 18.2519 28.4906 16.1147 30.6644L19.4809 34.0315Z" fill="#D5741B"/>
<path d="M38.5351 40.5292C36.9133 38.964 34.7464 38.0906 32.4925 38.0937C31.32 38.0923 30.1595 38.3282 29.0806 38.7873C28.0018 39.2464 27.0271 39.919 26.2151 40.7648L22.8249 37.3745C24.0794 36.079 25.5819 35.0493 27.2428 34.3469C28.9037 33.6444 30.6891 33.2835 32.4925 33.2857C36.0198 33.281 39.4075 34.6641 41.9236 37.1363L38.5351 40.5292Z" fill="#D5741B"/>
<path d="M32.2569 49.135C33.5686 49.135 34.632 48.0716 34.632 46.7599C34.632 45.4481 33.5686 44.3848 32.2569 44.3848C30.9451 44.3848 29.8818 45.4481 29.8818 46.7599C29.8818 48.0716 30.9451 49.135 32.2569 49.135Z" fill="#D5741B"/>
<path d="M51.8844 27.1322C46.8613 22.1091 39.9218 19.0024 32.2569 19.0024C24.5796 19.0024 17.6302 22.1189 12.6053 27.1553L9.216 23.8104C15.104 17.8993 23.2533 14.2397 32.256 14.2397C41.2364 14.2397 49.3671 17.8797 55.2515 23.7651L51.8844 27.1322V27.1322Z" stroke="#D5741B" stroke-width="0.5" stroke-miterlimit="10" stroke-linecap="round" stroke-linejoin="round"/>
<path d="M19.4809 34.0315C21.1764 32.3003 23.2009 30.9255 25.4354 29.9879C27.6699 29.0503 30.0693 28.5689 32.4925 28.5719C37.2722 28.5655 41.8622 30.442 45.2685 33.7951L48.632 30.4244C44.3338 26.1793 38.5336 23.8026 32.4925 23.8111C29.444 23.8072 26.4254 24.4113 23.6133 25.5881C20.8011 26.7649 18.2519 28.4906 16.1147 30.6644L19.4809 34.0315V34.0315Z" stroke="#D5741B" stroke-width="0.5" stroke-miterlimit="10" stroke-linecap="round" stroke-linejoin="round"/>
<path d="M38.5351 40.5292C36.9133 38.964 34.7464 38.0906 32.4925 38.0937C31.32 38.0923 30.1595 38.3282 29.0806 38.7873C28.0018 39.2464 27.0271 39.919 26.2151 40.7648L22.8249 37.3745C24.0794 36.079 25.5819 35.0493 27.2428 34.3469C28.9037 33.6444 30.6891 33.2835 32.4925 33.2857C36.0198 33.281 39.4075 34.6641 41.9236 37.1363L38.5351 40.5292Z" stroke="#D5741B" stroke-width="0.5" stroke-miterlimit="10" stroke-linecap="round" stroke-linejoin="round"/>
<path d="M32.2569 49.135C33.5686 49.135 34.632 48.0716 34.632 46.7599C34.632 45.4481 33.5686 44.3848 32.2569 44.3848C30.9451 44.3848 29.8818 45.4481 29.8818 46.7599C29.8818 48.0716 30.9451 49.135 32.2569 49.135Z" stroke="#D5741B" stroke-width="0.5" stroke-miterlimit="10" stroke-linecap="round" stroke-linejoin="round"/>
</svg>
